<?xml version="1.0" encoding="UTF-8"?>
<svg width="796" height="390" xmlns="http://www.w3.org/2000/svg">
<rect width="100%" height="100%" fill="white"/>
<rect x="500" y="100" width="96" height="90" fill="#ffffff" stroke="#000000" stroke-width="1" rx="4"/>
<line x1="490" y1="115" x2="490" y2="175" stroke="#000000" stroke-width="1"/><line x1="606" y1="115" x2="606" y2="175" stroke="#000000" stroke-width="1"/><text x="548" y="140" font-family="Arial" font-size="10" text-anchor="middle">ADD_2</text>
<text x="548" y="160" font-family="Arial" font-size="10" text-anchor="middle">1.0</text>
<text x="510" y="120" font-family="Arial" font-size="10" >REQ</text>
<text x="475" y="120" font-family="Arial" font-size="10" text-anchor="end" >Normal Execution Request — Event</text>
<polygon points="500,120 505,115 500,110" fill="lime" stroke="lime" stroke-width="1"/><line x1="500" y1="115" x2="480" y2="115" stroke="#000000" stroke-width="1"/><rect x="486" y="111" width="8" height="8" fill-opacity="0" stroke="#000000" stroke-width="1" />
<text x="586" y="120" font-family="Arial" font-size="10" text-anchor="end" >CNF</text>
<text x="621" y="120" font-family="Arial" font-size="10" >Event — Execution Confirmation</text>
<polygon points="591,120 596,115 591,110" fill="lime" stroke="lime" stroke-width="1"/><line x1="596" y1="115" x2="616" y2="115" stroke="#000000" stroke-width="1"/><rect x="602" y="111" width="8" height="8" fill-opacity="0" stroke="#000000" stroke-width="1" />
<text x="510" y="180" font-family="Arial" font-size="10">IN1</text>
<text x="475" y="180" font-family="Arial" font-size="10" text-anchor="end" >ADD input 1 — ANY_MAGNITUDE</text>
<polygon points="500,180 505,175 500,170" fill="blue" stroke="blue" stroke-width="1"/><line x1="500" y1="175" x2="480" y2="175" stroke="#000000" stroke-width="1"/><rect x="486" y="171" width="8" height="8" fill-opacity="0" stroke="#000000" stroke-width="1" />
<text x="586" y="180" font-family="Arial" font-size="10" text-anchor="end">OUT</text>
<text x="621" y="180" font-family="Arial" font-size="10" >ANY_MAGNITUDE — ADD result</text>
<polygon points="591,180 596,175 591,170" fill="blue" stroke="blue" stroke-width="1"/><line x1="596" y1="175" x2="616" y2="175" stroke="#000000" stroke-width="1"/><rect x="602" y="171" width="8" height="8" fill-opacity="0" stroke="#000000" stroke-width="1" />
</svg>