<?xml version="1.0" encoding="UTF-8"?>
<svg width="811" height="410" xmlns="http://www.w3.org/2000/svg">
<rect width="100%" height="100%" fill="white"/>
<rect x="500" y="100" width="111" height="110" fill="#ffffff" stroke="#000000" stroke-width="1" rx="4"/>
<line x1="490" y1="115" x2="490" y2="195" stroke="#000000" stroke-width="1"/><line x1="621" y1="115" x2="621" y2="175" stroke="#000000" stroke-width="1"/><text x="555" y="140" font-family="Arial" font-size="10" text-anchor="middle">F_DIV</text>
<text x="555" y="160" font-family="Arial" font-size="10" text-anchor="middle">1.0</text>
<text x="510" y="120" font-family="Arial" font-size="10" >REQ</text>
<text x="475" y="120" font-family="Arial" font-size="10" text-anchor="end" >Normal Execution Request — Event</text>
<polygon points="500,120 505,115 500,110" fill="lime" stroke="lime" stroke-width="1"/><line x1="500" y1="115" x2="480" y2="115" stroke="#000000" stroke-width="1"/><rect x="486" y="111" width="8" height="8" fill-opacity="0" stroke="#000000" stroke-width="1" />
<text x="601" y="120" font-family="Arial" font-size="10" text-anchor="end" >CNF</text>
<text x="636" y="120" font-family="Arial" font-size="10" >Event — Execution Confirmation</text>
<polygon points="606,120 611,115 606,110" fill="lime" stroke="lime" stroke-width="1"/><line x1="611" y1="115" x2="631" y2="115" stroke="#000000" stroke-width="1"/><rect x="617" y="111" width="8" height="8" fill-opacity="0" stroke="#000000" stroke-width="1" />
<text x="510" y="180" font-family="Arial" font-size="10">IN1</text>
<text x="475" y="180" font-family="Arial" font-size="10" text-anchor="end" >First funtion input — ANY_NUM</text>
<polygon points="500,180 505,175 500,170" fill="blue" stroke="blue" stroke-width="1"/><line x1="500" y1="175" x2="480" y2="175" stroke="#000000" stroke-width="1"/><rect x="486" y="171" width="8" height="8" fill-opacity="0" stroke="#000000" stroke-width="1" />
<text x="510" y="200" font-family="Arial" font-size="10">IN2</text>
<text x="475" y="200" font-family="Arial" font-size="10" text-anchor="end" >Second function input — ANY_NUM</text>
<polygon points="500,200 505,195 500,190" fill="blue" stroke="blue" stroke-width="1"/><line x1="500" y1="195" x2="480" y2="195" stroke="#000000" stroke-width="1"/><rect x="486" y="191" width="8" height="8" fill-opacity="0" stroke="#000000" stroke-width="1" />
<text x="601" y="180" font-family="Arial" font-size="10" text-anchor="end">OUT</text>
<text x="636" y="180" font-family="Arial" font-size="10" >ANY_NUM — Function output</text>
<polygon points="606,180 611,175 606,170" fill="blue" stroke="blue" stroke-width="1"/><line x1="611" y1="175" x2="631" y2="175" stroke="#000000" stroke-width="1"/><rect x="617" y="171" width="8" height="8" fill-opacity="0" stroke="#000000" stroke-width="1" />
</svg>