<?xml version="1.0" encoding="UTF-8"?>
<svg width="791" height="390" xmlns="http://www.w3.org/2000/svg">
<rect width="100%" height="100%" fill="white"/>
<rect x="500" y="100" width="91" height="90" fill="#ffffff" stroke="#000000" stroke-width="1" rx="4"/>
<line x1="490" y1="115" x2="490" y2="175" stroke="#000000" stroke-width="1"/><line x1="601" y1="115" x2="601" y2="175" stroke="#000000" stroke-width="1"/><text x="545" y="140" font-family="Arial" font-size="10" text-anchor="middle">INT2INT</text>
<text x="545" y="160" font-family="Arial" font-size="10" text-anchor="middle">1.0</text>
<text x="510" y="120" font-family="Arial" font-size="10" >REQ</text>
<text x="475" y="120" font-family="Arial" font-size="10" text-anchor="end" >Normal Execution Request — Event</text>
<polygon points="500,120 505,115 500,110" fill="lime" stroke="lime" stroke-width="1"/><line x1="500" y1="115" x2="480" y2="115" stroke="#000000" stroke-width="1"/><rect x="486" y="111" width="8" height="8" fill-opacity="0" stroke="#000000" stroke-width="1" />
<text x="581" y="120" font-family="Arial" font-size="10" text-anchor="end" >CNF</text>
<text x="616" y="120" font-family="Arial" font-size="10" >Event — Execution Confirmation</text>
<polygon points="586,120 591,115 586,110" fill="lime" stroke="lime" stroke-width="1"/><line x1="591" y1="115" x2="611" y2="115" stroke="#000000" stroke-width="1"/><rect x="597" y="111" width="8" height="8" fill-opacity="0" stroke="#000000" stroke-width="1" />
<text x="510" y="180" font-family="Arial" font-size="10">IN</text>
<text x="475" y="180" font-family="Arial" font-size="10" text-anchor="end" > — INT</text>
<polygon points="500,180 505,175 500,170" fill="blue" stroke="blue" stroke-width="1"/><line x1="500" y1="175" x2="480" y2="175" stroke="#000000" stroke-width="1"/><rect x="486" y="171" width="8" height="8" fill-opacity="0" stroke="#000000" stroke-width="1" />
<text x="581" y="180" font-family="Arial" font-size="10" text-anchor="end">OUT</text>
<text x="616" y="180" font-family="Arial" font-size="10" >INT — </text>
<polygon points="586,180 591,175 586,170" fill="blue" stroke="blue" stroke-width="1"/><line x1="591" y1="175" x2="611" y2="175" stroke="#000000" stroke-width="1"/><rect x="597" y="171" width="8" height="8" fill-opacity="0" stroke="#000000" stroke-width="1" />
</svg>